<svg width="27" height="31" viewBox="0 0 27 31" fill="none" xmlns="http://www.w3.org/2000/svg">
  <path d="M1.9187 10.0416C1.38457 10.0416 0.931377 10.2279 0.558849 10.6004C0.18632 10.973 0 11.42 0 11.9417V19.9525C0 20.4873 0.186264 20.9401 0.558849 21.3127C0.931377 21.6852 1.38457 21.8715 1.9187 21.8715C2.45243 21.8715 2.90287 21.6853 3.26963 21.3127C3.63566 20.9401 3.81917 20.4873 3.81917 19.9525V11.9417C3.81917 11.4199 3.63291 10.973 3.26032 10.6004C2.88774 10.2279 2.44044 10.0416 1.9187 10.0416Z" fill="white"/>
  <path d="M17.3444 2.85012L18.6672 0.410015C18.754 0.248471 18.7231 0.124593 18.5742 0.037487C18.4126 -0.037624 18.2885 0.000435976 18.2017 0.148976L16.8605 2.60858C15.6803 2.08679 14.432 1.82541 13.1157 1.82541C11.7992 1.82541 10.5508 2.08684 9.37106 2.60858L8.02976 0.148976C7.9426 0.000435976 7.81844 -0.0372877 7.65724 0.037487C7.50802 0.124986 7.47714 0.248471 7.5643 0.410015L8.8871 2.85012C7.5458 3.53413 6.47754 4.48675 5.68271 5.71005C4.88788 6.93403 4.4903 8.27156 4.4903 9.72502H21.7225C21.7225 8.2719 21.3248 6.93431 20.53 5.71005C19.7351 4.48675 18.6731 3.53413 17.3444 2.85012ZM9.69695 6.39928C9.5539 6.54266 9.38305 6.61402 9.18446 6.61402C8.98547 6.61402 8.81809 6.54266 8.68155 6.39928C8.545 6.25657 8.47673 6.08639 8.47673 5.88712C8.47673 5.68853 8.545 5.51802 8.68155 5.37497C8.81809 5.23226 8.98586 5.1609 9.18446 5.1609C9.38305 5.1609 9.5539 5.23226 9.69695 5.37497C9.83966 5.51835 9.91135 5.68853 9.91135 5.88712C9.91096 6.08606 9.83932 6.25657 9.69695 6.39928ZM17.5492 6.39928C17.4124 6.54266 17.2446 6.61402 17.0463 6.61402C16.8473 6.61402 16.6765 6.54266 16.5337 6.39928C16.3907 6.25657 16.3194 6.08639 16.3194 5.88712C16.3194 5.68853 16.3907 5.51802 16.5337 5.37497C16.6765 5.23226 16.8473 5.1609 17.0463 5.1609C17.2449 5.1609 17.4123 5.23226 17.5492 5.37497C17.6859 5.51835 17.754 5.68853 17.754 5.88712C17.754 6.08606 17.6858 6.25657 17.5492 6.39928Z" fill="white"/>
  <path d="M4.56421 22.8023C4.56421 23.3742 4.7628 23.8582 5.16005 24.2555C5.55764 24.6527 6.04171 24.8513 6.61317 24.8513H7.99185L8.01074 29.0808C8.01074 29.6148 8.19701 30.0684 8.56953 30.4409C8.94206 30.8135 9.38942 30.9998 9.91083 30.9998C10.4446 30.9998 10.8981 30.8135 11.2707 30.4409C11.6433 30.0684 11.8295 29.6149 11.8295 29.0808V24.8517H14.4003V29.0808C14.4003 29.6148 14.5865 30.0684 14.9591 30.4409C15.3317 30.8135 15.7848 30.9998 16.319 30.9998C16.8528 30.9998 17.3062 30.8135 17.6788 30.4409C18.0514 30.0684 18.2376 29.6149 18.2376 29.0808V24.8517H19.6349C20.1937 24.8517 20.6716 24.6531 21.0695 24.2558C21.4667 23.8586 21.6654 23.3745 21.6654 22.8027V10.3948H4.56421V22.8023Z" fill="white"/>
  <path d="M24.3119 10.0416C23.7901 10.0416 23.3432 10.2252 22.9706 10.5912C22.5981 10.9579 22.4118 11.4083 22.4118 11.9417V19.9525C22.4118 20.4873 22.598 20.9401 22.9706 21.3127C23.3432 21.6853 23.7905 21.8715 24.3119 21.8715C24.8457 21.8715 25.2992 21.6853 25.6718 21.3127C26.0444 20.9401 26.2306 20.4873 26.2306 19.9525V11.9417C26.2306 11.4083 26.0444 10.9579 25.6718 10.5912C25.2992 10.2252 24.8457 10.0416 24.3119 10.0416Z" fill="white"/>
</svg>