<svg width="124" height="30" viewBox="0 0 124 30" fill="none" xmlns="http://www.w3.org/2000/svg">
<g clip-path="url(#clip0_2_1191)">
<path fill-rule="evenodd" clip-rule="evenodd" d="M4.22092 0.833252L0.465141 19.856C0.194106 21.1163 0.000509022 22.3372 0.000509022 23.6369C-0.0382104 27.0239 2.13007 29.2295 7.16359 29.2295C16.069 29.2295 20.0571 22.1009 20.0571 15.6812C20.0571 12.2154 18.1986 8.98584 14.3267 8.98584C12.081 8.98584 10.0675 9.93107 8.78981 11.2308H8.71237L10.8419 0.833252H4.22092ZM41.6064 14.0342C41.6468 13.9999 41.6876 13.9655 41.7288 13.9309C48.2241 8.48731 51.0355 8.48731 53.4918 8.48731C58.6028 8.48731 61.8165 11.8744 61.8165 16.443C61.8165 23.9654 56.783 28.7309 50.1232 28.7309C45.4581 28.7309 43.6847 26.1447 40.886 23.2983C40.8491 23.2608 40.8105 23.2228 40.7704 23.184C40.73 23.2183 40.6892 23.2528 40.648 23.2874C34.1527 28.7309 31.2912 28.7309 28.885 28.7309C23.774 28.7309 20.5603 25.3439 20.5603 20.7753C20.5603 13.2528 25.5938 8.48731 32.2536 8.48731C36.7822 8.48731 38.6921 11.0735 41.4908 13.9199C41.5277 13.9574 41.5663 13.9955 41.6064 14.0342ZM7.31847 18.9501C7.86054 16.0751 9.48675 14.4209 11.113 14.4209C12.4681 14.4209 13.1264 15.5237 13.1264 17.1778C13.1264 20.171 11.113 24.1883 8.59621 24.1883C7.58951 24.1883 6.89256 23.5581 6.85384 22.3766C6.7764 21.6283 6.93128 20.9587 7.04743 20.3286L7.31847 18.9501ZM30.6568 22.1547C28.5436 22.1547 27.6645 20.3529 27.6645 18.7381C27.6645 16.842 29.1916 14.6769 31.9019 14.6769C34.4866 14.6769 37.1745 18.836 37.1745 18.7381C37.1745 18.6141 33.4833 22.1547 30.6568 22.1547ZM51.8265 14.6769C53.9397 14.6769 54.8188 16.4787 54.8188 18.0935C54.8188 19.9896 53.2917 22.1547 50.5813 22.1547C47.9967 22.1547 45.3088 17.9956 45.3088 18.0935C45.3088 18.2175 49 14.6769 51.8265 14.6769ZM60.6006 27.6147C61.8396 28.5206 64.3177 29.1507 66.8732 29.2295C72.3326 29.2689 76.2432 26.7876 76.2432 22.1797C76.2432 19.2652 73.7265 17.808 71.6744 16.8234C70.203 16.1538 69.5061 15.5631 69.5061 15.0117C69.5061 14.224 70.3192 13.8301 71.5582 13.8301C73.3393 13.8301 74.7332 14.3028 75.585 14.6572L77.0951 10.0098C76.0884 9.45846 74.2686 8.98584 71.8292 8.98584C66.5634 8.98584 62.8463 11.664 62.8463 15.9569C62.8463 18.5169 64.9372 20.1317 67.1055 21.195C68.7704 21.9433 69.3512 22.4947 69.3512 23.2037C69.3512 23.8338 68.8091 24.3458 67.4927 24.3458C65.518 24.3852 63.311 23.5187 62.1494 22.9673L60.6006 27.6147ZM81.4803 5.75631L80.8221 9.41907H78.4989L77.5309 14.4997H79.8541L78.5376 21.2738C78.2666 22.8098 78.1504 23.8338 78.1504 24.8578C78.1504 27.4572 79.9315 29.2295 83.5324 29.2295C84.8102 29.2295 86.3589 29.0719 87.172 28.7569L88.0239 23.4793C87.4818 23.5581 86.9397 23.5581 86.4751 23.5581C85.2748 23.5581 84.9263 22.8886 84.9263 22.0221C84.9263 21.4707 85.0812 20.4861 85.1973 19.856L86.2815 14.4997H90.1534L91.1214 9.41907H87.2495L88.2562 3.90524L81.4803 5.75631ZM95.7002 28.7962L96.9005 22.1797C97.5588 18.635 98.8752 15.5237 102.786 15.5237H103.638L104.954 9.02523C104.567 8.98584 104.218 8.98584 103.831 8.98584C101.198 8.98584 99.0688 10.7581 97.6749 13.2788H97.5588C97.6749 11.9791 97.7524 10.7188 97.8298 9.41907H92.138C91.9445 11.0338 91.7121 14.5784 91.1701 17.6504L89.0792 28.7962H95.7002ZM120.955 28.7962C120.878 26.2756 121.304 22.2978 121.691 20.2104L123.704 10.0492C122.001 9.49784 119.406 8.98584 116.928 8.98584C107.094 8.98584 103.106 15.9175 103.106 22.3372C103.106 26.5513 105.545 29.2295 108.991 29.2295C111.004 29.2295 113.366 28.3236 114.992 25.4486H115.07C115.031 26.5513 114.954 27.6935 114.915 28.7962H120.955ZM115.534 18.0443C114.683 22.6129 113.095 23.8338 111.895 23.8338C110.733 23.8338 109.998 22.8886 109.998 21.0769C109.998 18.2412 112.011 14.0271 115.109 14.0271C115.418 14.0271 115.883 14.0664 116.309 14.1452L115.534 18.0443Z" fill="#1E262E"/>
</g>
<defs>
<clipPath id="clip0_2_1191">
<rect width="124" height="28.4167" fill="white" transform="translate(0 0.833252)"/>
</clipPath>
</defs>
</svg>
