<svg width="37" height="28" viewBox="0 0 37 28" fill="none" xmlns="http://www.w3.org/2000/svg">
  <g clip-path="url(#clip0_2_1113)">
  <path d="M28.0353 4.33487C28.1659 4.12414 28.0092 3.8344 27.7482 3.8344H22.3447C22.0837 3.8344 21.9271 4.0978 22.0576 4.33487L24.7463 9.04982C24.8768 9.26055 25.19 9.26055 25.3206 9.04982L28.0353 4.33487Z" fill="#DA2E35"/>
  <path d="M22.3186 30.7808C22.1881 30.9915 22.3447 31.2812 22.6058 31.2812H28.0092C28.2703 31.2812 28.4269 31.0178 28.2964 30.7808L25.5816 26.0658C25.4511 25.8551 25.1378 25.8551 25.0073 26.0658L22.2925 30.7808H22.3186Z" fill="#DA2E35"/>
  <path d="M32.0553 9.76102C32.3163 9.76102 32.473 9.49762 32.3425 9.26055L29.6277 4.54559C29.4971 4.33487 29.1839 4.33487 29.0534 4.54559L26.3386 9.26055C26.2081 9.47128 26.3647 9.76102 26.6257 9.76102H32.0292H32.0553Z" fill="#DA2E35"/>
  <path d="M29.0534 15.9511C29.1839 16.1618 29.4972 16.1618 29.6277 15.9511L32.3425 11.2361C32.473 11.0254 32.3164 10.7356 32.0553 10.7356H26.6519C26.3908 10.7356 26.2342 10.999 26.3647 11.2361L29.0795 15.9511H29.0534Z" fill="#DA2E35"/>
  <path d="M36.1275 16.8993C36.3886 16.8993 36.5452 16.6359 36.4147 16.3988L33.6999 11.6839C33.5694 11.4732 33.2561 11.4732 33.1256 11.6839L30.4108 16.3988C30.2803 16.6096 30.4369 16.8993 30.6979 16.8993H36.1014H36.1275Z" fill="#DA2E35"/>
  <path d="M33.1517 23.0893C33.2822 23.3001 33.5954 23.3001 33.726 23.0893L36.4407 18.3744C36.5713 18.1636 36.4146 17.8739 36.1536 17.8739H30.7501C30.4891 17.8739 30.3325 18.1373 30.463 18.3744L33.1778 23.0893H33.1517Z" fill="#DA2E35"/>
  <path d="M26.3647 23.5635C26.2342 23.7742 26.3908 24.0639 26.6519 24.0639H32.0553C32.3164 24.0639 32.473 23.8005 32.3425 23.5635L29.6277 18.8485C29.4972 18.6378 29.1839 18.6378 29.0534 18.8485L26.3386 23.5635H26.3647Z" fill="#DA2E35"/>
  <path d="M29.0534 30.2276C29.1839 30.4383 29.4972 30.4383 29.6277 30.2276L32.3425 25.5127C32.473 25.3019 32.3164 25.0122 32.0553 25.0122H26.6519C26.3908 25.0122 26.2342 25.2756 26.3647 25.5127L29.0795 30.2276H29.0534Z" fill="#DA2E35"/>
  <path d="M17.3067 4.04513C17.4372 3.8344 17.2806 3.54465 17.0196 3.54465H11.6161C11.3551 3.54465 11.1984 3.80806 11.329 4.04513L14.0176 8.76008C14.1482 8.97081 14.4614 8.97081 14.5919 8.76008L17.3067 4.04513Z" fill="#0077FF"/>
  <path d="M11.1985 30.7544C11.0679 30.9652 11.2246 31.2549 11.4856 31.2549H16.8891C17.1501 31.2549 17.3067 30.9915 17.1762 30.7544L14.4614 26.0395C14.3309 25.8288 14.0177 25.8288 13.8871 26.0395L11.1724 30.7544H11.1985Z" fill="#0077FF"/>
  <path d="M21.2484 9.73468C21.5094 9.73468 21.666 9.47127 21.5355 9.23421L18.8207 4.51925C18.6902 4.30852 18.377 4.30852 18.2464 4.51925L15.5317 9.23421C15.4011 9.44493 15.5578 9.73468 15.8188 9.73468H21.2223H21.2484Z" fill="#0077FF"/>
  <path d="M18.2465 15.8984C18.377 16.1091 18.6902 16.1091 18.8207 15.8984L21.5355 11.1834C21.666 10.9727 21.5094 10.6829 21.2484 10.6829H15.8449C15.5839 10.6829 15.4273 10.9463 15.5578 11.1834L18.2726 15.8984H18.2465Z" fill="#0077FF"/>
  <path d="M25.3206 16.873C25.5816 16.873 25.7382 16.6096 25.6077 16.3725L22.8929 11.6575C22.7624 11.4468 22.4492 11.4468 22.3186 11.6575L19.6039 16.3725C19.4733 16.5832 19.63 16.873 19.891 16.873H25.2945H25.3206Z" fill="#0077FF"/>
  <path d="M22.3447 23.0367C22.4752 23.2474 22.7885 23.2474 22.919 23.0367L25.6338 18.3217C25.7643 18.111 25.6077 17.8212 25.3467 17.8212H19.9432C19.6821 17.8212 19.5255 18.0846 19.656 18.3217L22.3708 23.0367H22.3447Z" fill="#0077FF"/>
  <path d="M15.5578 23.5108C15.4273 23.7215 15.5839 24.0113 15.8449 24.0113H21.2484C21.5094 24.0113 21.666 23.7479 21.5355 23.5108L18.8207 18.7958C18.6902 18.5851 18.377 18.5851 18.2465 18.7958L15.5317 23.5108H15.5578Z" fill="#0077FF"/>
  <path d="M18.2465 30.1749C18.377 30.3857 18.6902 30.3857 18.8207 30.1749L21.5355 25.46C21.666 25.2493 21.5094 24.9595 21.2484 24.9595H15.8449C15.5839 24.9595 15.4273 25.2229 15.5578 25.46L18.2726 30.1749H18.2465Z" fill="#0077FF"/>
  <path d="M6.91748 3.86074C7.048 3.65001 6.89138 3.36027 6.63034 3.36027H1.22688C0.965839 3.36027 0.809217 3.62367 0.939736 3.86074L3.62842 8.5757C3.75893 8.78642 4.07218 8.78642 4.2027 8.5757L6.91748 3.86074Z" fill="white"/>
  <path d="M0.417641 30.5701C0.287122 30.7808 0.443745 31.0705 0.704782 31.0705H6.10825C6.36928 31.0705 6.52591 30.8071 6.39539 30.5701L3.6806 25.8551C3.55008 25.6444 3.23684 25.6444 3.10632 25.8551L0.391537 30.5701H0.417641Z" fill="white"/>
  <path d="M11.0158 9.5503C11.2768 9.5503 11.4334 9.28689 11.3029 9.04983L8.58812 4.33487C8.4576 4.12415 8.14435 4.12415 8.01383 4.33487L5.29905 9.04983C5.16853 9.26055 5.32515 9.5503 5.58619 9.5503H10.9897H11.0158Z" fill="white"/>
  <path d="M7.46564 15.714C7.59615 15.9247 7.9094 15.9247 8.03992 15.714L10.7547 10.999C10.8852 10.7883 10.7286 10.4986 10.4676 10.4986H5.0641C4.80306 10.4986 4.64644 10.762 4.77695 10.999L7.49174 15.714H7.46564Z" fill="white"/>
  <path d="M14.5397 16.6886C14.8008 16.6886 14.9574 16.4252 14.8269 16.1881L12.1121 11.4732C11.9816 11.2624 11.6683 11.2624 11.5378 11.4732L8.82304 16.1881C8.69252 16.3988 8.84914 16.6886 9.11018 16.6886H14.5136H14.5397Z" fill="white"/>
  <path d="M11.5639 22.8523C11.6944 23.063 12.0077 23.063 12.1382 22.8523L14.853 18.1373C14.9835 17.9266 14.8269 17.6368 14.5658 17.6368H9.16236C8.90133 17.6368 8.7447 17.9002 8.87522 18.1373L11.59 22.8523H11.5639Z" fill="white"/>
  <path d="M4.77695 23.3264C4.64644 23.5371 4.80306 23.8269 5.0641 23.8269H10.4676C10.7286 23.8269 10.8852 23.5635 10.7547 23.3264L8.03992 18.6114C7.9094 18.4007 7.59615 18.4007 7.46564 18.6114L4.75085 23.3264H4.77695Z" fill="white"/>
  <path d="M7.46564 29.9906C7.59615 30.2013 7.9094 30.2013 8.03992 29.9906L10.7547 25.2756C10.8852 25.0649 10.7286 24.7751 10.4676 24.7751H5.0641C4.80306 24.7751 4.64644 25.0385 4.77695 25.2756L7.49174 29.9906H7.46564Z" fill="white"/>
  </g>
  <defs>
  <clipPath id="clip0_2_1113">
  <rect width="37" height="28" fill="white"/>
  </clipPath>
  </defs>
</svg>