<svg width="33" height="33" viewBox="0 0 33 33" fill="none" xmlns="http://www.w3.org/2000/svg">
  <path d="M2.3057 30.0676C4.61127 32.3411 8.32218 32.3411 15.744 32.3411H17.056C24.4778 32.3411 28.1887 32.3411 30.4943 30.0676C32.8 27.7942 32.8 24.1352 32.8 16.8172V15.5236C32.8 8.2056 32.8 4.54663 30.4943 2.27331C28.1887 -4.88758e-07 24.4778 0 17.056 0H15.744C8.32218 0 4.61127 -4.88758e-07 2.3057 2.27331C-8.14597e-07 4.54663 0 8.2056 0 15.5236V16.8172C0 24.1352 -8.14597e-07 27.7942 2.3057 30.0676Z" fill="#0077FF"/>
  <path fill-rule="evenodd" clip-rule="evenodd" d="M24.9239 21.5494L22.7078 21.0036C22.4408 20.9281 22.2524 20.6913 22.243 20.4162L21.9663 12.3733C21.8864 11.3088 21.085 10.4622 20.2475 10.2129C20.2005 10.1988 20.1502 10.2177 20.1224 10.2576C20.0941 10.2982 20.1051 10.3542 20.1444 10.3844C20.3514 10.5423 20.9206 11.0574 20.9206 11.9458L20.9189 22.4615C20.9189 23.477 19.9457 24.2217 18.942 23.9744L16.6916 23.4201C16.442 23.334 16.2687 23.1049 16.2596 22.8406L15.9831 14.7973C15.9031 13.7328 15.1017 12.8861 14.2642 12.6368C14.2172 12.6227 14.1669 12.6416 14.139 12.6815C14.1107 12.7221 14.1217 12.7781 14.1612 12.8083C14.3679 12.9662 14.9372 13.4813 14.9372 14.3698L14.9355 23.1352L14.9368 24.8865C14.9368 25.9018 13.9637 26.6467 12.9599 26.3994L6.60337 24.8336C5.71968 24.6161 5.10004 23.8365 5.10004 22.9426V12.4105C5.10004 11.3951 6.0731 10.6504 7.07692 10.8976L11.0822 11.8842V9.98563C11.0822 8.9702 12.0553 8.2255 13.059 8.47273L17.0641 9.45919V7.56062C17.0641 6.54518 18.0372 5.80049 19.041 6.04772L25.3975 7.61337C26.2812 7.83108 26.9008 8.61049 26.9008 9.50443V20.0365C26.9008 21.0519 25.9276 21.7966 24.9239 21.5494Z" fill="white"/>
</svg>